<?xml version="1.0" encoding="UTF-8" standalone="no"?>
<svg
   viewBox="0 0 24 24"
   version="1.1"
   width="24"
   height="24"
   xml:space="preserve"
   xmlns="http://www.w3.org/2000/svg"
   xmlns:xlink="http://www.w3.org/1999/xlink">
  <defs>
    <linearGradient
       id="bgGradient"
       x1="0.05"
       x2="1"
       y2="1"
       gradientUnits="userSpaceOnUse"
       gradientTransform="matrix(22,0,0,22,1,1)">
      <stop
         stop-color="#1a2973"
         offset="0.2" />
      <stop
         stop-color="#273ead"
         offset="0.205" />
      <stop
         stop-color="#2945c4"
         offset="1" />
    </linearGradient>
  </defs>
  <rect
     x="1"
     y="1"
     width="22"
     height="22"
     rx="6.6"
     fill="url(#bgGradient)"
     opacity="0.9"
     stroke="#808080"
     stroke-opacity="0.2"
     vector-effect="non-scaling-stroke"
     style="-inkscape-stroke:hairline" />
  
  <!-- RAM Icon in the same style as other BigLinux apps (opaque white) -->
  <path
     style="fill:#ffffff;fill-opacity:1;stroke-width:1"
     d="M 5,9 V 15 H 19 V 9 Z M 6,10 H 7 V 11 H 6 Z M 8,10 H 9 V 11 H 8 Z M 10,10 H 11 V 11 H 10 Z M 12,10 H 13 V 11 H 12 Z M 14,10 H 15 V 11 H 14 Z M 16,10 H 17 V 11 H 16 Z M 18,10 H 19 V 11 H 18 Z M 6,14 H 7 V 15 H 6 Z M 8,14 H 9 V 15 H 8 Z M 10,14 H 11 V 15 H 10 Z M 12,14 H 13 V 15 H 12 Z M 14,14 H 15 V 15 H 14 Z M 16,14 H 17 V 15 H 16 Z M 18,14 H 19 V 15 H 18 Z" />
  
  <!-- Swap Arrows Icon (Opaque white with slight separation) -->
  <path
     style="fill:#ffffff;fill-opacity:0.8;stroke-width:0.1"
     d="M 12,5 L 14.5,7 H 13 V 11 H 11 V 7 H 9.5 Z M 12,19 L 9.5,17 H 11 V 13 H 13 V 17 H 14.5 Z" />
</svg>
